<svg xmlns="http://www.w3.org/2000/svg" viewBox="0 0 420 600">
  <defs>
    <linearGradient id="sky" x1="0" y1="0" x2="0" y2="1">
      <stop offset="0" stop-color="#fde68a"/>
      <stop offset=".65" stop-color="#fca5a5"/>
      <stop offset="1" stop-color="#0f766e"/>
    </linearGradient>
  </defs>
  <rect width="420" height="600" rx="18" fill="url(#sky)"/>
  <circle cx="300" cy="132" r="58" fill="#fff7ed" opacity=".82"/>
  <path d="M0 360 C92 322 147 390 224 344 C291 304 350 312 420 270 L420 600 L0 600 Z" fill="#115e59"/>
  <path d="M0 468 C90 430 160 484 246 438 C318 398 370 424 420 392 L420 600 L0 600 Z" fill="#0e7490"/>
  <path d="M86 356 h132 l32 72 h-196z" fill="#7c2d12"/>
  <path d="M68 356 l84-70 l84 70z" fill="#b45309"/>
  <rect x="112" y="382" width="52" height="46" fill="#fef3c7"/>
  <path d="M40 512 C130 478 214 535 328 486 C365 470 392 462 420 468" stroke="#e0f2fe" stroke-width="8" fill="none" opacity=".7"/>
  <text x="210" y="96" text-anchor="middle" font-family="Arial, sans-serif" font-size="15" fill="#7c2d12" font-weight="700">TẬP TRUYỆN NGẮN VIỆT NAM</text>
  <text x="210" y="176" text-anchor="middle" font-family="Georgia, serif" font-size="50" fill="#7c2d12" font-weight="700">QUÁN NHỎ</text>
  <text x="210" y="238" text-anchor="middle" font-family="Georgia, serif" font-size="48" fill="#ffffff" font-weight="700">VEN SÔNG</text>
  <text x="210" y="548" text-anchor="middle" font-family="Arial, sans-serif" font-size="18" fill="#ecfeff">Nhiều tác giả</text>
</svg>
