<svg xmlns="http://www.w3.org/2000/svg" viewBox="0 0 420 600">
  <defs>
    <linearGradient id="bg" x1="0" y1="0" x2="0" y2="1">
      <stop offset="0" stop-color="#f8edeb"/>
      <stop offset="1" stop-color="#7d4f50"/>
    </linearGradient>
  </defs>
  <rect width="420" height="600" rx="18" fill="url(#bg)"/>
  <circle cx="86" cy="96" r="70" fill="#fcd5ce" opacity=".75"/>
  <circle cx="340" cy="480" r="105" fill="#ffb5a7" opacity=".4"/>
  <path d="M70 370 L210 250 L350 370 L350 500 L70 500 Z" fill="#fffaf0"/>
  <path d="M70 370 L210 455 L350 370" fill="none" stroke="#b5838d" stroke-width="6"/>
  <path d="M88 500 L185 414 M332 500 L235 414" stroke="#d4a373" stroke-width="5"/>
  <path d="M126 168 C168 130 222 140 260 102 C279 83 304 78 329 84" stroke="#6d6875" stroke-width="5" fill="none" stroke-linecap="round"/>
  <text x="210" y="86" text-anchor="middle" font-family="Arial, sans-serif" font-size="16" fill="#6d6875" font-weight="700">TẢN VĂN TRUYỀN CẢM HỨNG</text>
  <text x="210" y="185" text-anchor="middle" font-family="Georgia, serif" font-size="43" fill="#4a2c2a" font-weight="700">NHỮNG</text>
  <text x="210" y="237" text-anchor="middle" font-family="Georgia, serif" font-size="50" fill="#4a2c2a" font-weight="700">LÁ THƯ</text>
  <text x="210" y="290" text-anchor="middle" font-family="Georgia, serif" font-size="40" fill="#7d4f50" font-weight="700">GỬI TƯƠNG LAI</text>
  <text x="210" y="550" text-anchor="middle" font-family="Arial, sans-serif" font-size="18" fill="#fffaf0">Phạm Lữ Ân</text>
</svg>
