<svg xmlns="http://www.w3.org/2000/svg" viewBox="0 0 420 600">
  <defs>
    <linearGradient id="bg" x1="0" y1="0" x2="1" y2="1">
      <stop offset="0" stop-color="#fff7ad"/>
      <stop offset="0.55" stop-color="#47c4a7"/>
      <stop offset="1" stop-color="#176b87"/>
    </linearGradient>
    <filter id="shadow" x="-20%" y="-20%" width="140%" height="140%">
      <feDropShadow dx="0" dy="12" stdDeviation="12" flood-color="#0f3d3e" flood-opacity=".35"/>
    </filter>
  </defs>
  <rect width="420" height="600" rx="18" fill="url(#bg)"/>
  <circle cx="335" cy="82" r="48" fill="#ffe66d"/>
  <path d="M0 360 C90 292 162 330 238 280 C306 236 365 250 420 205 L420 600 L0 600 Z" fill="#0f7c63" opacity=".92"/>
  <path d="M0 430 C80 380 160 410 250 360 C315 322 376 340 420 300 L420 600 L0 600 Z" fill="#0b4f4f"/>
  <path d="M95 510 C160 425 240 390 325 330" stroke="#ffd166" stroke-width="9" fill="none" stroke-linecap="round"/>
  <g fill="#fff3c4" opacity=".9">
    <circle cx="72" cy="125" r="5"/><circle cx="105" cy="92" r="3"/><circle cx="292" cy="142" r="4"/><circle cx="350" cy="170" r="3"/>
  </g>
  <text x="210" y="92" text-anchor="middle" font-family="Georgia, serif" font-size="22" fill="#0b4f4f" font-weight="700">THANHSTORE</text>
  <text x="210" y="190" text-anchor="middle" font-family="Georgia, serif" font-size="48" fill="#ffffff" font-weight="700">MÙA HẠ</text>
  <text x="210" y="242" text-anchor="middle" font-family="Georgia, serif" font-size="36" fill="#fff7ad" font-weight="700">TRONG KHU</text>
  <text x="210" y="292" text-anchor="middle" font-family="Georgia, serif" font-size="44" fill="#ffffff" font-weight="700">VƯỜN CŨ</text>
  <rect x="86" y="330" width="248" height="42" rx="21" fill="#ffffff" opacity=".2"/>
  <text x="210" y="358" text-anchor="middle" font-family="Arial, sans-serif" font-size="17" fill="#ffffff">Nguyễn Nhật Ánh</text>
  <g filter="url(#shadow)">
    <path d="M160 446 h100 v72 h-100z" fill="#f9f5e7"/>
    <path d="M160 446 h100 v16 h-100z" fill="#e9d8a6"/>
    <path d="M175 468 h70" stroke="#40916c" stroke-width="4"/>
    <path d="M175 488 h52" stroke="#40916c" stroke-width="4"/>
  </g>
</svg>
