<svg xmlns="http://www.w3.org/2000/svg" viewBox="0 0 420 600">
  <defs>
    <linearGradient id="bg" x1="0" y1="0" x2="1" y2="1">
      <stop offset="0" stop-color="#0f172a"/>
      <stop offset="1" stop-color="#334155"/>
    </linearGradient>
    <radialGradient id="glow" cx=".5" cy=".45" r=".45">
      <stop offset="0" stop-color="#93c5fd" stop-opacity=".85"/>
      <stop offset="1" stop-color="#93c5fd" stop-opacity="0"/>
    </radialGradient>
  </defs>
  <rect width="420" height="600" rx="18" fill="url(#bg)"/>
  <circle cx="210" cy="278" r="150" fill="url(#glow)"/>
  <g stroke="#38bdf8" stroke-width="2" opacity=".55" fill="none">
    <path d="M40 120 H150 V190 H260 V145 H380"/>
    <path d="M45 470 H132 V420 H250 V465 H375"/>
    <path d="M210 145 V430"/>
    <circle cx="210" cy="278" r="82"/>
    <circle cx="210" cy="278" r="112"/>
  </g>
  <g fill="#e0f2fe">
    <circle cx="150" cy="190" r="5"/><circle cx="260" cy="145" r="5"/><circle cx="132" cy="420" r="5"/><circle cx="250" cy="465" r="5"/>
  </g>
  <text x="210" y="88" text-anchor="middle" font-family="Arial, sans-serif" font-size="15" fill="#bae6fd" font-weight="700">KỸ NĂNG HỌC TẬP</text>
  <text x="210" y="185" text-anchor="middle" font-family="Georgia, serif" font-size="52" fill="#ffffff" font-weight="700">TƯ DUY</text>
  <text x="210" y="250" text-anchor="middle" font-family="Georgia, serif" font-size="72" fill="#7dd3fc" font-weight="700">SÂU</text>
  <text x="210" y="308" text-anchor="middle" font-family="Georgia, serif" font-size="28" fill="#e2e8f0">TRONG THỜI ĐẠI NHANH</text>
  <rect x="88" y="378" width="244" height="52" rx="26" fill="#0f172a" opacity=".65" stroke="#38bdf8"/>
  <text x="210" y="412" text-anchor="middle" font-family="Arial, sans-serif" font-size="17" fill="#e0f2fe">Đọc sâu - Nghĩ chậm - Làm bền</text>
  <text x="210" y="545" text-anchor="middle" font-family="Arial, sans-serif" font-size="18" fill="#bae6fd">Nguyễn Hiến Lê</text>
</svg>
